#!OML:ASF E:\Style6\Style6.ASF
:FULLY-SPECIFIED
:DEGREES
3310
root 0.709323 17.1092 -1.20765 44.7165 -9.6242 -0.0540475
lowerback 33.7644 -0.116016 2.69775
upperback 18.7678 0.339348 2.41699
thorax 3.35846 0.11794 1.01413
lowerneck -0.295374 -1.05478 3.58698
upperneck -7.39928 -1.70627 -4.95458
head -2.38761 -0.840891 -2.18704
rclavicle -1.94809e-014 1.09332e-014
rhumerus 41.5644 10.4919 -63.2378
rradius 125.704
rwrist 7.6192
rhand -21.5622 4.6461
rfingers 7.12502
rthumb 4.83148 -25.2788
lclavicle -1.94809e-014 1.09332e-014
lhumerus 42.8182 -13.1766 70.9154
lradius 126.536
lwrist -13.9123
lhand -2.48942 23.3938
lfingers 7.12502
lthumb 23.2039 52.016
rfemur -73.9302 0.100436 16.6218
rtibia 35.8541
rfoot -1.02918 -6.40785
rtoes -11.487
lfemur -72.3044 2.23844 -21.199
ltibia 42.7156
lfoot -5.66305 11.9887
ltoes -23.1645
3311
root 0.707422 17.1078 -1.20664 44.5489 -9.67619 -0.022804
lowerback 33.7788 -0.0853122 2.65387
upperback 19.1258 0.341675 2.15389
thorax 3.75298 0.137478 0.76375
lowerneck -1.43706 -0.69945 4.75282
upperneck -5.07812 -1.18324 -5.39401
head -1.4224 -0.612884 -2.53642
rclavicle -9.54166e-015 7.95139e-016
rhumerus 42.1382 10.1411 -63.6775
rradius 125.699
rwrist 7.78888
rhand -22.0363 4.69532
rfingers 7.12502
rthumb 4.37376 -25.2395
lclavicle -9.54166e-015 7.95139e-016
lhumerus 43.6002 -13.0884 70.1279
lradius 126.544
lwrist -14.2429
lhand -2.75272 23.4693
lfingers 7.12502
lthumb 22.9513 52.1231
rfemur -73.843 0.106411 16.5977
rtibia 35.991
rfoot -1.01985 -6.35977
rtoes -12.0548
lfemur -72.1994 2.29652 -21.3108
ltibia 42.85
lfoot -5.72502 11.9665
ltoes -22.8801
3312
root 0.705822 17.1034 -1.20563 44.3964 -9.72465 0.00657816
lowerback 33.8404 -0.0494054 2.57021
upperback 19.348 0.352583 2.09114
thorax 3.97792 0.141495 0.740826
lowerneck -1.58665 -0.396315 5.12744
upperneck -3.39557 -0.725728 -5.69637
head -0.8392 -0.386014 -2.70168
rclavicle -1.15295e-014 1.33186e-014
rhumerus 42.5578 9.89631 -63.7485
rradius 125.757
rwrist 7.8231
rhand -22.4401 4.62249
rfingers 7.12502
rthumb 3.9838 -25.32
lclavicle -1.15295e-014 1.33186e-014
lhumerus 44.0633 -13.0402 69.7686
lradius 126.564
lwrist -14.7751
lhand -2.74925 23.3509
lfingers 7.12502
lthumb 22.9546 52.0044
rfemur -73.7618 0.0851304 16.6109
rtibia 36.1146
rfoot -1.04502 -6.30788
rtoes -12.7469
lfemur -72.1067 2.34983 -21.3907
ltibia 42.9617
lfoot -5.826 11.9252
ltoes -22.1621
3313
root 0.704896 17.0993 -1.20416 44.3208 -9.72081 0.0140113
lowerback 33.8355 -0.0465214 2.55656
upperback 19.4914 0.345725 2.14578
thorax 4.13905 0.133143 0.808148
lowerneck -1.73171 -0.0758774 5.17509
upperneck -1.77383 -0.243685 -6.00733
head -0.273502 -0.145347 -2.81156
rclavicle -1.70955e-014 7.35503e-015
rhumerus 42.8894 9.75931 -63.5737
rradius 125.792
rwrist 7.81448
rhand -22.8721 4.60127
rfingers 7.12502
rthumb 3.56661 -25.3486
lclavicle -1.70955e-014 7.35503e-015
lhumerus 44.3035 -12.9713 69.6777
lradius 126.654
lwrist -15.0724
lhand -2.69763 23.174
lfingers 7.12502
lthumb 23.0041 51.8213
rfemur -73.729 0.0388072 16.6723
rtibia 36.2108
rfoot -1.05273 -6.28614
rtoes -12.4926
lfemur -72.0947 2.38515 -21.4147
ltibia 43.0293
lfoot -5.87686 11.8718
ltoes -21.8443
3314
root 0.704867 17.0993 -1.20406 44.2584 -9.72732 0.0416953
lowerback 33.835 -0.0594012 2.55825
upperback 19.6454 0.323455 2.20265
thorax 4.3113 0.118328 0.873931
lowerneck -2.41224 0.242561 4.84581
upperneck 0.0291379 0.23334 -6.12878
head 0.442554 0.0799928 -2.79049
rclavicle -4.37326e-015 4.77083e-015
rhumerus 43.2838 9.58274 -63.3485
rradius 125.735
rwrist 7.85343
rhand -23.3384 4.60537
rfingers 7.12502
rthumb 3.11633 -25.3516
lclavicle -4.37326e-015 4.77083e-015
lhumerus 44.4804 -12.8307 69.6142
lradius 126.835
lwrist -15.1597
lhand -2.98621 23.0043
lfingers 7.12502
lthumb 22.7272 51.6858
rfemur -73.6984 -0.0329255 16.7325
rtibia 36.2499
rfoot -1.07835 -6.22049
rtoes -12.1515
lfemur -72.0873 2.39459 -21.4571
ltibia 43.0718
lfoot -5.83106 11.8513
ltoes -22.0783
3315
root 0.703801 17.1031 -1.2021 44.1827 -9.7791 0.0204619
lowerback 33.9312 -0.0507966 2.55897
upperback 19.7979 0.327167 2.24483
thorax 4.44825 0.115809 0.91821
lowerneck -3.28525 0.464984 4.06321
upperneck 1.54132 0.583787 -5.85001
head 1.08839 0.235322 -2.5561
rclavicle 5.1684e-015 2.9122e-014
rhumerus 43.66 9.35529 -63.1431
rradius 125.749
rwrist 7.76235
rhand -23.6475 4.59251
rfingers 7.12502
rthumb 2.81775 -25.3686
lclavicle 5.1684e-015 2.9122e-014
lhumerus 44.5838 -12.6843 69.5701
lradius 127.022
lwrist -15.3372
lhand -3.41613 22.7363
lfingers 7.12502
lthumb 22.3145 51.4678
rfemur -73.5981 -0.0306396 16.7921
rtibia 36.219
rfoot -1.14225 -6.15343
rtoes -11.9865
lfemur -72.0087 2.41073 -21.4228
ltibia 43.0832
lfoot -5.74065 11.8619
ltoes -22.1617
